<?xml version="1.0" encoding="UTF-8" standalone="no"?>
<svg width="790px" height="251px" viewBox="0 0 790 251" version="1.1" xmlns="http://www.w3.org/2000/svg" xmlns:xlink="http://www.w3.org/1999/xlink" xmlns:sketch="http://www.bohemiancoding.com/sketch/ns">
    <!-- Generator: Sketch 3.3 (11970) - http://www.bohemiancoding.com/sketch -->
    <title>Slice 1</title>
    <desc>Created with Sketch.</desc>
    <defs></defs>
    <g id="Page-1" stroke="none" stroke-width="1" fill="none" fill-rule="evenodd" sketch:type="MSPage">
        <g id="noun_113957_cc" sketch:type="MSLayerGroup" transform="translate(269.000000, 0.000000)" fill="#D16A47">
            <path d="M215.043478,37.2869565 C191.391304,13.3565217 159.669565,1.42108547e-14 126,1.42108547e-14 C92.8869565,1.42108547e-14 61.7217391,12.8 38.0695652,36.173913 C14.1391304,59.5478261 1.06086957,90.9913043 0.782608696,124.382609 C0.504347826,157.773913 13.3043478,189.495652 36.9565217,213.147826 C40.8521739,217.043478 44.7478261,220.382609 49.2,223.721739 L49.2,156.382609 C49.2,151.652174 53.0956522,148.034783 57.5478261,148.034783 L57.5478261,148.034783 C62.2782609,148.034783 65.8956522,151.930435 65.8956522,156.66087 L65.8956522,235.130435 C75.0782609,240.13913 84.8173913,244.034783 95.1130435,246.817391 L95.1130435,106.017391 C95.1130435,101.286957 99.0086957,97.6695652 103.46087,97.6695652 L103.46087,97.6695652 C108.191304,97.6695652 111.808696,101.565217 111.808696,106.295652 L111.808696,249.878261 C116.53913,250.434783 121.269565,250.713043 126,250.713043 C130.730435,250.713043 135.46087,250.434783 140.191304,249.878261 L140.191304,79.5826087 C140.191304,74.8521739 144.365217,71.2347826 149.095652,71.2347826 L149.095652,71.2347826 C153.826087,71.2347826 157.443478,75.1304348 157.443478,79.5826087 L157.443478,246.53913 C167.73913,243.756522 177.478261,239.86087 186.66087,234.852174 L186.66087,125.217391 C186.66087,120.486957 190.556522,116.869565 195.008696,116.869565 C199.46087,116.869565 203.356522,120.765217 203.356522,125.217391 L203.356522,223.443478 C206.973913,220.66087 210.591304,217.6 213.930435,214.26087 C263.182609,165.843478 263.73913,86.2608696 215.043478,37.2869565 L215.043478,37.2869565 Z" id="Shape" sketch:type="MSShapeGroup"></path>
        </g>
    </g>
</svg>